<?xml version="1.0" encoding="utf-8"?>
<!-- Generator: Adobe Illustrator 24.3.0, SVG Export Plug-In . SVG Version: 6.00 Build 0)  -->
<svg version="1.1" id="New_Layer" xmlns="http://www.w3.org/2000/svg" xmlns:xlink="http://www.w3.org/1999/xlink" x="0px" y="0px"
	 viewBox="0 0 849 661" style="enable-background:new 0 0 849 661;" xml:space="preserve">
<style type="text/css">
	.st0{fill:#FFFFFF;stroke:#000000;stroke-miterlimit:10;}
	.st1{fill-rule:evenodd;clip-rule:evenodd;}
</style>
<rect x="49" y="215.3" class="st0" width="766" height="81.2"/>
<path class="st1" d="M0,186.6l0,27.2v102.5h849V186.6 M330.4,234.4c9,3.7,13.1,18.7,9.1,32.3c-2.1,6.4-7.1,11.4-13.5,13.4
	c-5,1.5-13.4,0.1-17.5-2.8c-3.9-2.9-6.8-9.7-7.3-17.7c-0.7-11.9,2.7-20,10.3-24.3C316.2,232.6,325.2,232.2,330.4,234.4L330.4,234.4z
	 M550.5,255c6.9,18.6,8.3,21.5,10.3,21.8c1.2,0,2.2,1,2.2,2.3c0,0,0,0,0,0c0,1.8-0.6,2-6.7,1.7c-5.3-0.2-6.8-0.7-7.1-1.9
	c-0.1-1.1,0.6-2,1.7-2.2c1.9-0.5,2-0.8,0.7-4.4l-1.3-3.8l-10.2-0.3c-9.9-0.3-10.1-0.2-11,2.1c-1.9,4.8-1.7,6.2,0.7,6.5
	c1.5,0.2,2.2,0.9,2,2c-0.3,1.4-1.7,1.8-7.1,2c-6.1,0.3-6.7,0.1-6.7-1.7c0-1.2,0.9-2.2,2.1-2.3c1.8-0.2,3.2-3.4,8.9-19.3
	c9.5-26.4,8.7-24.7,11.2-24.3C542.1,233.5,543.6,236.5,550.5,255L550.5,255z M172.3,238.2c0.3,1.7,0.3,3.3,0.1,5
	c-1.1,1.8-3.2,0.6-3.7-2.2l-0.6-3h-16.2l0.3,8.2l0.3,8.3l6.8,0.3c6.2,0.3,6.7,0.1,6.7-1.8c-0.1-1,0.6-1.9,1.6-2c0.1,0,0.3,0,0.4,0
	c1.8,0,2,0.7,2,6c0,4.5-0.3,6-1.4,6c-1-0.2-1.9-1-2.1-2c-0.6-1.7-1.5-2-7.6-2h-7l0.3,8.7l0.3,8.8l8.7,0.3l8.7,0.3l0.6-4.6
	c0.7-4.6,1.1-5,3.3-3.7c0.9,0.6,1,2.3,0.5,6.3l-0.8,5.4h-15c-13.5,0-15-0.2-15.3-1.8c-0.2-1.2,0.3-1.7,1.7-1.7
	c2.1,0,2.1-0.4,2.1-19.4c0-18.5-0.1-19.4-2-19.9c-1-0.2-1.8-1-2-2.1c0-1.4,1.9-1.6,14.4-1.6h14.3L172.3,238.2z M217.5,235.6
	c6.6,3.1,7.4,13.3,1.5,20.6l-3.3,4l1.8,3.2c5.8,10,8.6,13.6,10.5,13.6c1.4,0,2,0.7,2,2.1c0,1.7-0.5,2-3.7,1.7
	c-3.5-0.3-4-0.8-9.4-9.3l-5.6-9l-5.2-0.3l-5.2-0.3l0.3,7.3c0.3,6.7,0.5,7.3,2.6,7.6c1.2,0,2.2,1,2.2,2.3c0,0,0,0,0,0
	c0,1.8-0.6,2-6.7,1.7c-5.5-0.2-6.8-0.6-7.1-2.1c-0.2-1.2,0.3-1.7,1.7-1.7c2.1,0,2.1-0.4,2.1-19.4c0-18.5-0.1-19.4-2-19.9
	c-1-0.2-1.8-1-2-2.1C192,233.3,212.7,233.3,217.5,235.6L217.5,235.6z M273.6,235.9c6.6,4,6.7,13.3,0.3,20.6l-3.1,3.5l5.2,8.5
	c4.3,7,5.6,8.5,7.6,8.5s2.5,0.5,2.2,1.7s-1.4,1.9-3.9,2.1c-3.6,0.3-3.7,0.2-9.5-9.2l-5.9-9.6H257v7.5c0,7.4,0,7.5,2.6,7.5
	c1.9,0,2.5,0.5,2.2,1.7c-0.3,1.5-1.6,1.9-7.1,2.1c-6.1,0.3-6.7,0.1-6.7-1.6c0.1-1.2,0.9-2.2,2-2.5c1.9-0.5,2-1.4,2-19.6
	c0-18.4-0.1-19.1-2-19.1c-1,0.1-1.9-0.6-2-1.6c0-0.1,0-0.3,0-0.4c0-1.9,0.7-2,11.3-2C268.6,234,271,234.3,273.6,235.9L273.6,235.9z
	 M387.1,237.8c4.8,5.3,3.6,13.1-3.1,20.7c-1.7,1.9-1.6,2.2,3.6,10.2c3.8,5.9,5.9,8.3,7.4,8.3c1-0.1,1.9,0.6,2,1.6c0,0.1,0,0.3,0,0.4
	c0,1.6-0.7,2-3.3,2c-3.9,0-4.7-0.8-11.1-11.3l-4.8-7.7h-9.9l0.3,7.2c0.3,6.7,0.5,7.3,2.6,7.6c1.2,0,2.2,1,2.2,2.3c0,0,0,0,0,0
	c0,1.7-0.8,1.9-7,1.9s-7-0.2-7-2c-0.1-1,0.6-1.9,1.6-2c0.1,0,0.3,0,0.4,0c1.9,0,2-0.7,2-19.4c0-18.5-0.1-19.4-2-19.9
	c-1.1-0.3-1.8-1.1-2-2.2c0-1.5,1.3-1.6,12.6-1.3l12.6,0.3L387.1,237.8z M465.5,250c4.4,8.8,8.3,16,8.7,16s4.4-7.2,8.8-16l8-16h5.1
	c4.3,0,5,0.3,4.7,1.7c-0.4,1.2-1.4,2-2.6,2.1l-2.2,0.3l0.2,19.2l0.3,19.2l2.8,0.3c2,0.3,2.7,0.8,2.5,2c-0.5,2.5-14.1,2.5-14.6,0
	c-0.2-1.1,0.5-1.8,2-2c2.3-0.3,2.3-0.5,2.6-16.1c0.1-8.6-0.1-15.7-0.5-15.7s-3.9,6.1-7.6,13.6c-6.4,12.8-6.9,13.5-9.5,13.2
	c-2.4-0.3-3.5-1.9-9.9-14.3l-7.2-14l-0.1,16.7V277h2.5c1.9,0,2.5,0.5,2.5,2c0,1.9-0.5,2.1-6.7,1.8c-5.5-0.2-6.8-0.6-7.1-2.1
	c-0.2-1.2,0.3-1.7,1.7-1.7c2.1,0,2.1-0.4,2.1-19.4c0-18.5-0.1-19.4-2-19.9c-1-0.2-1.8-1-2-2.1c0-1.2,1.1-1.6,4.8-1.6h4.7L465.5,250z
	 M593.8,235.7c-0.4,1.2-1.4,2-2.6,2.1c-2,0.3-2.2,0.8-2.2,7.7c0,4.1,0.3,7.6,0.8,7.8s3.3-3.1,6.5-7.4c3.7-5.2,5.2-7.9,4.2-7.9
	c-0.8,0-1.5-0.9-1.5-2c0-1.8,0.7-2,6.5-2s6.5,0.2,6.5,2c0,1.4-0.7,2-2.2,2c-1.7,0.1-4,2.4-8.7,8.7c-7.4,9.9-7.7,7.9,3.2,21.5
	c5.2,6.5,7.7,8.8,9.4,8.8s2.3,0.6,2.3,2c0,1.6-0.7,2-3.5,2c-4,0-4.6-0.6-14.8-13.7c-4-5.1-7.5-8.9-8-8.4s-0.7,4.6-0.5,9.2
	c0.3,7.8,0.4,8.4,2.6,8.7c1.2,0,2.2,1,2.2,2.3c0,0,0,0,0,0c0,1.8-0.6,2-6.7,1.7c-5.4-0.2-6.8-0.6-7.1-2c-0.2-1.1,0.5-1.8,2-2
	l2.3-0.3l0.3-19.2l0.2-19.2l-2.2-0.3c-1.2-0.1-2.2-0.9-2.6-2.1c-0.3-1.5,0.5-1.7,6.8-1.7S594.1,234.2,593.8,235.7L593.8,235.7z
	 M662.2,237.5c0,1.6,0.1,3.1,0.2,4.7c0.1,0.7-0.6,1.4-1.5,1.6c-1.1,0.2-1.8-0.7-2.2-2.8l-0.6-3h-16.2l0.3,8.2l0.3,8.3l6.8,0.3
	c6.2,0.3,6.7,0.1,6.7-1.8c-0.1-1,0.6-1.9,1.6-2c0.1,0,0.3,0,0.4,0c1.8,0,2,0.7,2,6c0,4.8-0.3,6-1.6,6c-1.1-0.2-1.9-1-2.1-2
	c-0.5-1.8-1.4-2-7.5-2h-6.9l0.3,8.7l0.3,8.8h17l0.9-4.3c0.5-2.3,1.2-4.2,1.5-4.2c2.1,0.1,2.7,2,2.2,7l-0.6,5.5l-15.2,0.3
	C633.5,281,633,281,633,279c-0.1-1,0.6-1.9,1.6-2c0.1,0,0.3,0,0.4,0c1.9,0,2-0.7,2-19.5s-0.1-19.5-2-19.5c-1,0.1-1.9-0.6-2-1.6
	c0-0.1,0-0.3,0-0.4c0-1.9,0.7-2,14.5-2H662L662.2,237.5z M710.1,237.8c2,1.9,3.1,4.6,2.9,7.3c0,4.1-2.7,10.6-5.4,12.8
	c-2.3,1.9-2.1,2.8,3.4,11.3c3.5,5.5,5.6,7.8,7,7.8s2,0.7,2,2.1c0,1.7-0.5,2-3.7,1.7c-3.6-0.3-4.1-0.8-9.4-9.3l-5.6-9l-5.2-0.3
	l-5.2-0.3l0.3,7.3c0.3,6.7,0.5,7.3,2.6,7.6c1.2,0,2.2,1,2.2,2.3c0,0,0,0,0,0c0,1.8-0.6,2-6.7,1.7c-5.5-0.2-6.8-0.6-7.1-2.1
	c-0.2-1.2,0.3-1.7,1.7-1.7c2.1,0,2.1-0.4,2.1-19.4c0-18.5-0.1-19.4-2-19.9c-1.1-0.3-1.8-1.1-2-2.2c0-1.5,1.3-1.6,12.6-1.3l12.6,0.3
	L710.1,237.8z"/>
<path class="st1" d="M315.5,238.3c-6.1,2.8-9.5,9.4-9.5,18.3c0,7.9,1.8,13,5.7,16.4c2.8,2.5,4.2,3,8.6,3c10.8,0,16.6-8.4,15.5-22.3
	c-0.6-7.2-2.7-11.9-6.3-14.3C326.1,237.2,319.2,236.7,315.5,238.3z"/>
<path class="st1" d="M535.3,252.5c-2.2,6.3-3.7,11.7-3.5,12s4.1,0.5,8.4,0.5c5.6,0,7.8-0.4,7.8-1.3c0-1.9-7.4-22.7-8.1-22.7
	C539.5,241,537.5,246.2,535.3,252.5z"/>
<path class="st1" d="M201.2,247.7l0.3,9.8l5.1,0.3c4.9,0.3,5.3,0.1,8.3-3.5c2.4-2.9,3.1-4.7,3.1-8c0-5.9-3.2-8.3-11.2-8.3h-5.9
	L201.2,247.7z"/>
<path class="st1" d="M257,248v10h5c5.5,0,7.6-1.4,10.5-7.1c2.1-4,1.3-9.3-1.8-11.4c-1.3-0.9-4.4-1.5-7.9-1.5H257L257,248z"/>
<path class="st1" d="M368,248v10h5.3c4.3,0,5.8-0.5,7.4-2.3c5-5.5,5.7-11.4,1.8-15.2c-2-2.1-3.4-2.5-8.5-2.5h-6L368,248z"/>
<path class="st1" d="M691.2,247.7l0.3,9.8l4.9,0.3c3.6,0.2,5.3-0.2,6.8-1.5c3-2.8,4.7-6.6,4.8-10.7c0-5.1-3.6-7.6-11.2-7.6h-5.9
	L691.2,247.7z"/>
</svg>
